<svg width="304" height="177" viewBox="0 0 304 177" fill="none" xmlns="http://www.w3.org/2000/svg">
    <g clip-path="url(#clip0_550_1949)">
        <rect x="4.19467" y="15.4134" width="240.609" height="147.176" rx="16.4513" fill="white" stroke="black"
            stroke-width="0.826834" />
        <rect x="25" y="60" width="88.229" height="11.8296" rx="5.91479" fill="#D3D3D3" />
        <rect x="25" y="75.7729" width="45.8396" height="11.8296" rx="5.91479" fill="#D3D3D3" />
        <rect x="74.293" y="75.7729" width="38.9391" height="11.8296" rx="5.91479" fill="#D3D3D3" />
        <rect x="25" y="91.5454" width="45.8396" height="11.8296" rx="5.91479" fill="#D3D3D3" />
        <rect x="74.293" y="91.5454" width="38.9391" height="11.8296" rx="5.91479" fill="#D3D3D3" />
        <rect x="25.9863" y="107.318" width="38.9391" height="11.8296" rx="5.91479" fill="#D3D3D3" />
        <path fill-rule="evenodd" clip-rule="evenodd"
            d="M-11.5268 79.2012C-13.0991 79.0778 -14.6316 78.6538 -16.0382 77.953C-18.68 76.6392 -20.657 74.318 -21.5071 71.5321C-22.4082 68.4597 -22.0651 65.1641 -20.5496 62.3344C-19.7986 60.9659 -18.7766 59.7588 -17.5437 58.7838C-14.9494 56.7517 -11.6491 55.7963 -8.34741 56.1214C-7.09819 56.2245 -5.87355 56.5216 -4.7192 57.0018C-3.67256 57.4321 -2.70967 58.037 -1.87317 58.79C-1.10329 59.4872 -0.492519 60.3366 -0.0810661 61.2824C0.322369 62.1972 0.484566 63.1972 0.390543 64.1898C0.325878 65.227 -0.151764 66.1974 -0.939125 66.8914C-1.67761 67.5617 -2.67533 67.8852 -3.67496 67.7785C-4.6881 67.7125 -5.62432 67.2247 -6.24809 66.4378C-6.8981 65.6252 -7.19058 64.5912 -7.0605 63.5657C-7.0331 63.2541 -6.96696 62.947 -6.86353 62.6512C-6.76247 62.3641 -6.61156 61.948 -6.4108 61.403C-6.26039 61.0441 -6.12853 60.6781 -6.01572 60.3062C-5.94463 60.041 -5.89688 59.7703 -5.87299 59.497C-5.78249 58.7994 -5.99253 58.0964 -6.45247 57.5575C-6.91253 57.0261 -7.57337 56.7021 -8.28226 56.6603C-8.96136 56.6007 -9.64109 56.7674 -10.212 57.1335C-10.8705 57.5538 -11.4349 58.1016 -11.8705 58.7434C-12.4074 59.5277 -12.8304 60.3817 -13.1271 61.2807C-13.4806 62.3216 -13.7073 63.3999 -13.8025 64.4932C-14.052 67.1729 -13.5659 69.3618 -12.3443 71.0599C-11.115 72.7632 -9.15687 73.817 -7.03367 73.918C-5.80612 74.0448 -4.56518 73.9061 -3.39807 73.5115C-2.17144 73.0569 -1.04146 72.3825 -0.0656223 71.5225L0.444778 71.8349C-2.60167 77.1888 -6.59222 79.6442 -11.5268 79.2012Z"
            fill="white" />
        <circle cx="20.9106" cy="25.5143" r="3.07269" fill="#D3D3D3" />
        <circle cx="28.1723" cy="25.5143" r="3.07269" fill="#D3D3D3" />
        <circle cx="35.436" cy="25.5143" r="3.07269" fill="#D3D3D3" />
        <rect x="53.3906" y="21.6147" width="157.098" height="8.26834" rx="4.13417" fill="#D3D3D3" />
    </g>
    <g filter="url(#filter0_d_550_1949)">
        <rect x="137" y="45" width="148.067" height="43.6516" rx="15.5899" fill="#FAE83C"
            shape-rendering="crispEdges" />
        <g clip-path="url(#clip1_550_1949)">
            <path
                d="M168.18 65.4627V68.283C168.18 71.5733 167.636 73.5475 166.201 74.6756C164.766 75.8507 162.439 76.1798 158.827 76.1798C155.214 76.1798 152.888 75.8037 151.452 74.6286C150.017 73.5005 149.473 71.5263 149.473 68.283V65.4627C149.473 62.1724 150.017 60.1982 151.452 59.0231C152.888 57.848 155.214 57.4719 158.827 57.4719C162.439 57.4719 164.766 57.848 166.201 59.0231C167.636 60.1982 168.18 62.1724 168.18 65.4627Z"
                fill="#2475FF" />
            <path
                d="M162.785 63.4414C162.29 62.9244 161.547 62.6424 160.36 62.5484C160.855 63.1124 161.053 63.9585 161.053 65.1336V66.6848C161.053 66.8728 160.904 67.0138 160.706 67.0138C160.508 67.0138 160.36 66.8728 160.36 66.6848V65.1336C160.36 63.9115 160.112 63.2064 159.667 62.7834C159.419 62.5954 159.122 62.4543 158.776 62.4543H158.133C156.499 62.4543 155.46 62.6894 154.866 63.3474C154.272 64.0055 154.074 65.0866 154.074 66.7318C154.074 68.3769 154.272 69.458 154.866 70.1161C155.361 70.6331 156.103 70.9152 157.291 71.0092C157.341 71.0092 157.341 70.9622 157.341 70.9622C156.846 70.3981 156.598 69.505 156.598 68.2829V66.6848C156.598 66.4967 156.747 66.3557 156.945 66.3557C157.143 66.3557 157.291 66.4967 157.291 66.6848V68.2829C157.291 69.458 157.489 70.1631 157.885 70.5861C158.133 70.8682 158.578 71.0562 158.974 71.0562H159.518C161.152 71.0562 162.141 70.8212 162.735 70.1631C163.329 69.505 163.527 68.4239 163.527 66.7788C163.577 65.1806 163.379 64.0995 162.785 63.4414Z"
                fill="white" />
        </g>
        <path
            d="M175.125 63.1869H177.69C178.417 63.1869 179.079 63.3288 179.676 63.6125C180.273 63.889 180.749 64.3146 181.106 64.8893C181.462 65.4641 181.64 66.1698 181.64 67.0064C181.64 67.8358 181.462 68.5379 181.106 69.1126C180.749 69.6873 180.273 70.1166 179.676 70.4003C179.079 70.6841 178.417 70.8259 177.69 70.8259H175.125V63.1869ZM177.526 69.4073C178.232 69.4073 178.818 69.2181 179.283 68.8398C179.749 68.4542 179.982 67.8431 179.982 67.0064C179.982 66.1698 179.749 65.5586 179.283 65.173C178.818 64.7875 178.232 64.5947 177.526 64.5947H176.762V69.4073H177.526ZM182.287 68.065C182.287 67.5775 182.386 67.1192 182.582 66.6899C182.786 66.2607 183.091 65.9115 183.499 65.6423C183.913 65.3731 184.415 65.2385 185.005 65.2385C185.616 65.2385 186.125 65.3695 186.532 65.6314C186.94 65.8933 187.238 66.228 187.427 66.6354C187.624 67.0428 187.722 67.472 187.722 67.9231C187.722 68.0904 187.715 68.2541 187.7 68.4142H183.75C183.808 68.807 183.953 69.1162 184.186 69.3418C184.426 69.56 184.736 69.6692 185.114 69.6692C185.419 69.6692 185.67 69.611 185.867 69.4946C186.063 69.3709 186.191 69.1926 186.249 68.9598H187.733C187.624 69.5491 187.329 70.022 186.849 70.3785C186.369 70.735 185.79 70.9132 185.114 70.9132C184.517 70.9132 184.004 70.7786 183.575 70.5095C183.153 70.233 182.833 69.8765 182.615 69.44C182.397 69.0035 182.287 68.5451 182.287 68.065ZM186.205 67.4538C186.183 67.1337 186.067 66.8718 185.856 66.6681C185.645 66.4571 185.361 66.3516 185.005 66.3516C184.655 66.3516 184.379 66.4426 184.175 66.6245C183.972 66.7991 183.837 67.0755 183.772 67.4538H186.205ZM191.715 67.1265C191.715 66.8936 191.627 66.7081 191.453 66.5699C191.278 66.4244 191.038 66.3516 190.733 66.3516C190.42 66.3516 190.172 66.4353 189.991 66.6026C189.816 66.77 189.721 66.9773 189.707 67.2247H188.354C188.375 66.8536 188.488 66.519 188.692 66.2207C188.896 65.9151 189.179 65.675 189.543 65.5004C189.907 65.3258 190.332 65.2385 190.82 65.2385C191.278 65.2385 191.689 65.3258 192.053 65.5004C192.417 65.6678 192.701 65.9078 192.904 66.2207C193.115 66.5262 193.221 66.8827 193.221 67.2901V70.8259H191.715V70.062C191.62 70.3167 191.431 70.524 191.147 70.6841C190.871 70.8368 190.543 70.9132 190.165 70.9132C189.816 70.9132 189.503 70.8441 189.227 70.7059C188.957 70.5604 188.746 70.3639 188.594 70.1166C188.441 69.862 188.364 69.5782 188.364 69.2654C188.364 68.727 188.546 68.305 188.91 67.9995C189.281 67.6866 189.769 67.5302 190.372 67.5302H191.3C191.431 67.5302 191.533 67.4939 191.606 67.4211C191.678 67.3411 191.715 67.2429 191.715 67.1265ZM189.816 69.1999C189.816 69.3818 189.885 69.5309 190.023 69.6473C190.161 69.7565 190.336 69.811 190.547 69.811C190.911 69.811 191.195 69.6946 191.398 69.4618C191.609 69.229 191.715 68.9307 191.715 68.567V68.4906H190.602C190.369 68.4906 190.18 68.556 190.034 68.687C189.889 68.818 189.816 68.9889 189.816 69.1999ZM194.349 62.9359H195.866V70.8259H194.349V62.9359ZM203.408 67.2465C203.408 66.8609 203.277 66.5553 203.015 66.3298C202.753 66.097 202.393 65.9806 201.935 65.9806C201.535 65.9806 201.193 66.0897 200.909 66.308C200.625 66.519 200.473 66.7772 200.451 67.0828H199.621C199.651 66.7336 199.771 66.4208 199.982 66.1443C200.2 65.8606 200.48 65.6387 200.822 65.4786C201.171 65.3185 201.549 65.2385 201.957 65.2385C202.67 65.2385 203.234 65.424 203.648 65.7951C204.07 66.1661 204.281 66.6608 204.281 67.2792V70.8259H203.408V69.8765C203.263 70.1893 203.019 70.4403 202.677 70.6295C202.342 70.8187 201.96 70.9132 201.531 70.9132C200.957 70.9132 200.495 70.7641 200.145 70.4658C199.796 70.1602 199.621 69.7565 199.621 69.2545C199.621 68.7307 199.818 68.316 200.211 68.0104C200.611 67.6976 201.146 67.5411 201.815 67.5411H203.059C203.175 67.5411 203.263 67.5157 203.321 67.4648C203.379 67.4066 203.408 67.3338 203.408 67.2465ZM200.516 69.2436C200.516 69.5273 200.618 69.7528 200.822 69.9202C201.033 70.0875 201.313 70.1712 201.662 70.1712C202.215 70.1712 202.644 70.0111 202.95 69.691C203.255 69.3636 203.408 68.9162 203.408 68.3487V68.2068H201.87C201.455 68.2068 201.124 68.3014 200.876 68.4906C200.636 68.6724 200.516 68.9234 200.516 69.2436ZM204.813 65.3258H205.719L207.28 69.7346L208.84 65.3258H209.757L207.738 70.8259H206.832L204.813 65.3258ZM213.98 67.2465C213.98 66.8609 213.849 66.5553 213.587 66.3298C213.325 66.097 212.965 65.9806 212.507 65.9806C212.107 65.9806 211.765 66.0897 211.481 66.308C211.197 66.519 211.045 66.7772 211.023 67.0828H210.193C210.222 66.7336 210.343 66.4208 210.553 66.1443C210.772 65.8606 211.052 65.6387 211.394 65.4786C211.743 65.3185 212.121 65.2385 212.529 65.2385C213.242 65.2385 213.806 65.424 214.22 65.7951C214.642 66.1661 214.853 66.6608 214.853 67.2792V70.8259H213.98V69.8765C213.835 70.1893 213.591 70.4403 213.249 70.6295C212.914 70.8187 212.532 70.9132 212.103 70.9132C211.528 70.9132 211.066 70.7641 210.717 70.4658C210.368 70.1602 210.193 69.7565 210.193 69.2545C210.193 68.7307 210.39 68.316 210.783 68.0104C211.183 67.6976 211.718 67.5411 212.387 67.5411H213.631C213.747 67.5411 213.835 67.5157 213.893 67.4648C213.951 67.4066 213.98 67.3338 213.98 67.2465ZM211.088 69.2436C211.088 69.5273 211.19 69.7528 211.394 69.9202C211.605 70.0875 211.885 70.1712 212.234 70.1712C212.787 70.1712 213.216 70.0111 213.522 69.691C213.827 69.3636 213.98 68.9162 213.98 68.3487V68.2068H212.441C212.027 68.2068 211.696 68.3014 211.448 68.4906C211.208 68.6724 211.088 68.9234 211.088 69.2436ZM216.145 65.3258H217.018V70.8259H216.145V65.3258ZM217.083 63.0669V64.2891H216.079V63.0669H217.083ZM218.501 63.0669H219.374V70.8259H218.501V63.0669ZM224.35 67.2465C224.35 66.8609 224.219 66.5553 223.957 66.3298C223.695 66.097 223.335 65.9806 222.876 65.9806C222.476 65.9806 222.134 66.0897 221.85 66.308C221.567 66.519 221.414 66.7772 221.392 67.0828H220.563C220.592 66.7336 220.712 66.4208 220.923 66.1443C221.141 65.8606 221.421 65.6387 221.763 65.4786C222.112 65.3185 222.491 65.2385 222.898 65.2385C223.611 65.2385 224.175 65.424 224.59 65.7951C225.012 66.1661 225.223 66.6608 225.223 67.2792V70.8259H224.35V69.8765C224.204 70.1893 223.96 70.4403 223.618 70.6295C223.284 70.8187 222.902 70.9132 222.473 70.9132C221.898 70.9132 221.436 70.7641 221.087 70.4658C220.737 70.1602 220.563 69.7565 220.563 69.2545C220.563 68.7307 220.759 68.316 221.152 68.0104C221.552 67.6976 222.087 67.5411 222.756 67.5411H224C224.117 67.5411 224.204 67.5157 224.262 67.4648C224.32 67.4066 224.35 67.3338 224.35 67.2465ZM221.458 69.2436C221.458 69.5273 221.559 69.7528 221.763 69.9202C221.974 70.0875 222.254 70.1712 222.603 70.1712C223.156 70.1712 223.586 70.0111 223.891 69.691C224.197 69.3636 224.35 68.9162 224.35 68.3487V68.2068H222.811C222.396 68.2068 222.065 68.3014 221.818 68.4906C221.578 68.6724 221.458 68.9234 221.458 69.2436ZM229.253 70.9132C228.868 70.9132 228.508 70.8223 228.173 70.6404C227.846 70.4585 227.598 70.2184 227.431 69.9202V70.8259H226.558V63.0669H227.431V66.2207C227.598 65.9224 227.846 65.686 228.173 65.5113C228.508 65.3295 228.868 65.2385 229.253 65.2385C229.806 65.2385 230.283 65.3622 230.683 65.6096C231.083 65.8569 231.385 66.1952 231.589 66.6245C231.8 67.0537 231.905 67.5375 231.905 68.0759C231.905 68.6142 231.8 69.0981 231.589 69.5273C231.385 69.9565 231.083 70.2948 230.683 70.5422C230.283 70.7896 229.806 70.9132 229.253 70.9132ZM227.355 68.0759C227.355 68.6943 227.518 69.1926 227.846 69.5709C228.18 69.942 228.624 70.1275 229.177 70.1275C229.73 70.1275 230.174 69.942 230.508 69.5709C230.843 69.1926 231.01 68.6943 231.01 68.0759C231.01 67.4575 230.843 66.9628 230.508 66.5917C230.174 66.2134 229.73 66.0243 229.177 66.0243C228.624 66.0243 228.18 66.2134 227.846 66.5917C227.518 66.9628 227.355 67.4575 227.355 68.0759ZM233.069 63.0669H233.942V70.8259H233.069V63.0669ZM235.107 68.0431C235.107 67.5048 235.213 67.0246 235.424 66.6026C235.642 66.1734 235.947 65.8387 236.34 65.5986C236.733 65.3586 237.195 65.2385 237.726 65.2385C238.25 65.2385 238.705 65.3513 239.09 65.5768C239.476 65.7951 239.771 66.1006 239.974 66.4935C240.185 66.8864 240.291 67.3265 240.291 67.814C240.291 67.9667 240.284 68.0941 240.269 68.1959H235.969C236.006 68.7634 236.195 69.229 236.537 69.5928C236.879 69.9565 237.308 70.1384 237.825 70.1384C238.268 70.1384 238.628 70.0475 238.905 69.8656C239.189 69.6764 239.374 69.4073 239.461 69.058H240.345C240.251 69.6255 239.974 70.0766 239.516 70.4112C239.065 70.7459 238.501 70.9132 237.825 70.9132C237.293 70.9132 236.821 70.7859 236.406 70.5313C235.998 70.2694 235.678 69.9202 235.445 69.4836C235.22 69.0471 235.107 68.567 235.107 68.0431ZM239.396 67.4975C239.36 67.0319 239.192 66.6645 238.894 66.3953C238.603 66.1188 238.214 65.9806 237.726 65.9806C237.261 65.9806 236.879 66.1116 236.58 66.3735C236.282 66.6354 236.093 67.01 236.013 67.4975H239.396Z"
            fill="#161616" />
        <path
            d="M268.155 61.9229C268.083 61.8507 267.997 61.7933 267.903 61.7542C267.808 61.7151 267.707 61.695 267.605 61.695C267.503 61.695 267.402 61.7151 267.308 61.7542C267.213 61.7933 267.128 61.8507 267.056 61.9229L263.244 65.7268L259.432 61.9151C259.36 61.843 259.274 61.7857 259.18 61.7467C259.086 61.7076 258.985 61.6875 258.883 61.6875C258.781 61.6875 258.68 61.7076 258.585 61.7467C258.491 61.7857 258.405 61.843 258.333 61.9151C258.261 61.9873 258.204 62.073 258.165 62.1673C258.126 62.2616 258.105 62.3626 258.105 62.4647C258.105 62.5667 258.126 62.6678 258.165 62.7621C258.204 62.8564 258.261 62.942 258.333 63.0142L262.145 66.8259L258.333 70.6377C258.261 70.7098 258.204 70.7955 258.165 70.8898C258.126 70.9841 258.105 71.0851 258.105 71.1872C258.105 71.2893 258.126 71.3903 258.165 71.4846C258.204 71.5789 258.261 71.6646 258.333 71.7367C258.405 71.8089 258.491 71.8662 258.585 71.9052C258.68 71.9443 258.781 71.9644 258.883 71.9644C258.985 71.9644 259.086 71.9443 259.18 71.9052C259.274 71.8662 259.36 71.8089 259.432 71.7367L263.244 67.925L267.056 71.7367C267.128 71.8089 267.213 71.8662 267.308 71.9052C267.402 71.9443 267.503 71.9644 267.605 71.9644C267.707 71.9644 267.808 71.9443 267.903 71.9052C267.997 71.8662 268.083 71.8089 268.155 71.7367C268.227 71.6646 268.284 71.5789 268.323 71.4846C268.362 71.3903 268.382 71.2893 268.382 71.1872C268.382 71.0851 268.362 70.9841 268.323 70.8898C268.284 70.7955 268.227 70.7098 268.155 70.6377L264.343 66.8259L268.155 63.0142C268.451 62.718 268.451 62.2191 268.155 61.9229Z"
            fill="black" />
    </g>
    <defs>
        <filter id="filter0_d_550_1949" x="118.292" y="29.4101" width="185.482" height="81.0673"
            filterUnits="userSpaceOnUse" color-interpolation-filters="sRGB">
            <feFlood flood-opacity="0" result="BackgroundImageFix" />
            <feColorMatrix in="SourceAlpha" type="matrix" values="0 0 0 0 0 0 0 0 0 0 0 0 0 0 0 0 0 0 127 0"
                result="hardAlpha" />
            <feOffset dy="3.11797" />
            <feGaussianBlur stdDeviation="9.35392" />
            <feComposite in2="hardAlpha" operator="out" />
            <feColorMatrix type="matrix" values="0 0 0 0 0 0 0 0 0 0 0 0 0 0 0 0 0 0 0.15 0" />
            <feBlend mode="normal" in2="BackgroundImageFix" result="effect1_dropShadow_550_1949" />
            <feBlend mode="normal" in="SourceGraphic" in2="effect1_dropShadow_550_1949" result="shape" />
        </filter>
        <clipPath id="clip0_550_1949">
            <rect width="245" height="177" fill="white" />
        </clipPath>
        <clipPath id="clip1_550_1949">
            <rect width="18.7078" height="18.7078" fill="white" transform="translate(149.473 57.4719)" />
        </clipPath>
    </defs>
</svg>