<svg width="304" height="115" viewBox="0 0 304 115" fill="none" xmlns="http://www.w3.org/2000/svg">
  <rect x="0.488784" y="37.0996" width="76.342" height="76.421" rx="11.242" fill="white" stroke="black"
    stroke-width="0.977568" />
  <circle cx="38.6599" cy="75.2706" r="19.3299" fill="#D9D9D9" />
  <path
    d="M38.9256 72.6308C41.215 72.6308 43.0382 70.8075 43.0382 68.5182C43.0382 66.2288 41.215 64.4056 38.9256 64.4056C36.6363 64.4056 34.813 66.2288 34.813 68.5182C34.813 70.8075 36.6363 72.6308 38.9256 72.6308ZM38.9256 71.6026C37.1984 71.6026 35.8412 70.2455 35.8412 68.5182C35.8412 66.7909 37.1984 65.4337 38.9256 65.4337C40.6529 65.4337 42.0101 66.7909 42.0101 68.5182C42.0101 70.2455 40.6529 71.6026 38.9256 71.6026ZM46.4654 84.4888V81.418C46.4654 77.2232 43.1205 73.8645 38.9256 73.8645C34.7308 73.8645 31.3859 77.2369 31.3859 81.418V84.4888H46.4654ZM32.414 81.418C32.414 77.7989 35.3066 74.8927 38.9256 74.8927C42.5447 74.8927 45.4373 77.7852 45.4373 81.418V83.4606H32.414V81.418Z"
    fill="#818181" />
  <rect x="84.3291" y="37.0996" width="76.342" height="76.421" rx="11.242" fill="white" stroke="black"
    stroke-width="0.977568" />
  <circle cx="122.5" cy="75.2706" r="19.3299" fill="#D9D9D9" />
  <path
    d="M122.766 72.6308C125.055 72.6308 126.879 70.8075 126.879 68.5182C126.879 66.2288 125.055 64.4056 122.766 64.4056C120.477 64.4056 118.653 66.2288 118.653 68.5182C118.653 70.8075 120.477 72.6308 122.766 72.6308ZM122.766 71.6026C121.039 71.6026 119.682 70.2455 119.682 68.5182C119.682 66.7909 121.039 65.4337 122.766 65.4337C124.493 65.4337 125.85 66.7909 125.85 68.5182C125.85 70.2455 124.493 71.6026 122.766 71.6026ZM130.306 84.4888V81.418C130.306 77.2232 126.961 73.8645 122.766 73.8645C118.571 73.8645 115.226 77.2369 115.226 81.418V84.4888H130.306ZM116.254 81.418C116.254 77.7989 119.147 74.8927 122.766 74.8927C126.385 74.8927 129.278 77.7852 129.278 81.418V83.4606H116.254V81.418Z"
    fill="#818181" />
  <rect x="168.169" y="37.0996" width="76.342" height="76.421" rx="11.242" fill="white" stroke="black"
    stroke-width="0.977568" />
  <circle cx="206.341" cy="75.2706" r="19.3299" fill="#D9D9D9" />
  <path
    d="M206.606 72.6308C208.896 72.6308 210.719 70.8075 210.719 68.5182C210.719 66.2288 208.896 64.4056 206.606 64.4056C204.317 64.4056 202.494 66.2288 202.494 68.5182C202.494 70.8075 204.317 72.6308 206.606 72.6308ZM206.606 71.6026C204.879 71.6026 203.522 70.2455 203.522 68.5182C203.522 66.7909 204.879 65.4337 206.606 65.4337C208.334 65.4337 209.691 66.7909 209.691 68.5182C209.691 70.2455 208.334 71.6026 206.606 71.6026ZM214.146 84.4888V81.418C214.146 77.2232 210.801 73.8645 206.606 73.8645C202.411 73.8645 199.067 77.2369 199.067 81.418V84.4888H214.146ZM200.095 81.418C200.095 77.7989 202.987 74.8927 206.606 74.8927C210.225 74.8927 213.118 77.7852 213.118 81.418V83.4606H200.095V81.418Z"
    fill="#818181" />
  <path
    d="M252.837 52.2986L266.064 46.7899C269.726 48.934 273.981 50.1545 278.533 50.1545C292.189 50.1545 303.273 39.0712 303.273 25.4149C303.273 11.7587 292.189 0.675346 278.533 0.675346C264.877 0.675346 253.793 11.7587 253.793 25.4149C253.793 29.934 255.014 34.1892 257.158 37.8507L251.649 51.1441L252.837 52.2986ZM256.267 25.4149C256.267 13.1441 266.262 3.1493 278.533 3.1493C290.804 3.1493 300.799 13.1441 300.799 25.4149C300.799 37.6858 290.804 47.6806 278.533 47.6806C274.08 47.6806 269.957 46.4271 266.295 44.0191L255.41 48.5382L259.929 37.6198C257.521 33.9583 256.267 29.8351 256.267 25.4149Z"
    fill="#2475ff" />
</svg>