<svg width="225" height="163" viewBox="0 0 225 163" fill="none" xmlns="http://www.w3.org/2000/svg">
  <ellipse cx="145.5" cy="145.5" rx="79.5" ry="17.5" fill="#D9D9D9" />
  <rect x="0.429869" y="0.429869" width="125.14" height="147.14" rx="9.88699" fill="white" stroke="black"
    stroke-width="0.859738" />
  <path
    d="M0.429869 48.4299H125.57V137.683C125.57 143.144 121.144 147.57 115.683 147.57H10.3169C4.85643 147.57 0.429869 143.144 0.429869 137.683V48.4299Z"
    fill="#C4C4C4" stroke="black" stroke-width="0.859738" />
  <circle cx="103" cy="107" r="12.5" fill="#D9D9D9" stroke="black" />
  <path
    d="M100.789 134.202C100.789 129.403 97.3158 117.404 95 112.605C100.789 110.205 110.516 107.326 112.368 110.206C114.684 113.805 114.684 122.204 113.526 127.004C112.368 131.803 117 134.202 117 142.601V151H108.895H100.789V134.202Z"
    fill="#D9D9D9" />
  <g clip-path="url(#clip0_9831_16107)">
    <path
      d="M108.47 132.209C108.559 132.085 108.608 131.937 108.609 131.785C108.61 131.633 108.564 131.485 108.478 131.36L108.153 130.892C108.062 130.759 107.923 130.664 107.766 130.626C107.608 130.588 107.442 130.61 107.299 130.687C107.156 130.765 107.048 130.893 106.994 131.046C106.94 131.199 106.945 131.367 107.008 131.516L107.346 132.336C107.415 132.504 107.42 132.691 107.359 132.862C107.299 133.033 107.177 133.175 107.018 133.262C106.859 133.349 106.673 133.373 106.497 133.331C106.32 133.29 106.165 133.184 106.062 133.035L105.783 132.633C105.601 132.37 105.613 132.03 105.79 131.784M108.338 131.158L108.942 130.739M105.319 133.253L105.922 132.835M101.949 131.862L103.243 130.964L104.141 132.258"
      stroke="black" stroke-width="0.63" stroke-linecap="round" stroke-linejoin="round" />
    <path
      d="M110.022 134.994C109.385 135.64 108.551 136.056 107.652 136.176C106.753 136.297 105.839 136.116 105.055 135.661C104.27 135.206 103.658 134.504 103.316 133.664C102.973 132.824 102.919 131.894 103.162 131.02M104.196 129.24C104.833 128.595 105.667 128.179 106.566 128.058C107.465 127.937 108.378 128.119 109.163 128.573C109.948 129.028 110.56 129.731 110.902 130.571C111.245 131.411 111.299 132.341 111.055 133.215"
      stroke="black" stroke-width="0.63" stroke-linecap="round" stroke-linejoin="round" />
    <path d="M112.267 132.373L110.973 133.271L110.075 131.977" stroke="black" stroke-width="0.63" stroke-linecap="round"
      stroke-linejoin="round" />
  </g>
  <path
    d="M143.13 105.54L164.43 117.422L165.161 120L162.62 120.721L141.274 108.812C138.649 112.696 134.678 115.705 129.814 117.086C118.777 120.218 107.312 113.821 104.18 102.785C101.048 91.7486 107.444 80.2833 118.481 77.1513C129.517 74.0194 140.983 80.4157 144.115 91.4522C145.495 96.3169 145.02 101.277 143.13 105.54ZM128.783 113.455C137.787 110.9 143.05 101.522 140.484 92.4825C137.919 83.4427 128.551 78.2164 119.511 80.7818C110.471 83.3471 105.245 92.715 107.81 101.755C110.376 110.794 119.744 116.021 128.783 113.455Z"
    fill="#1445FE" />
  <defs>
    <clipPath id="clip0_9831_16107">
      <rect width="8.82" height="8.82" fill="white" transform="translate(108.219 125.98) rotate(55.2473)" />
    </clipPath>
  </defs>
</svg>