<svg width="199" height="154" viewBox="0 0 199 154" fill="none" xmlns="http://www.w3.org/2000/svg">
  <rect x="0.183027" y="0.183027" width="198.634" height="152.935" rx="10.7986" fill="#F9F9F9" stroke="black"
    stroke-width="0.366054" />
  <circle cx="169.837" cy="13.1262" r="6.64414" fill="white" />
  <path
    d="M172.218 16.1607H172.272V16.1064V14.1726H172.748C173.361 14.1726 173.862 13.6712 173.862 13.0581C173.862 12.445 173.361 11.9436 172.748 11.9436H172.272V10.0098V9.95551H172.218H170.284V9.47961C170.284 8.86649 169.783 8.36507 169.169 8.36507C168.556 8.36507 168.055 8.86649 168.055 9.47961V9.95551H166.121H166.067V10.0098V11.9978V12.052H166.121H166.651C167.204 12.052 167.657 12.5049 167.657 13.0581C167.657 13.6113 167.204 14.0641 166.651 14.0641H166.121H166.067V14.1184V16.1064V16.1607H166.121H172.218Z"
    fill="#1445FE" stroke="black" stroke-width="0.108485" />
  <rect x="55.2477" y="35.8015" width="27.7" height="27.7" rx="3.85" fill="#D3D3D3" />
  <rect x="55.2477" y="35.8015" width="27.7" height="27.7" rx="3.85" stroke="black" stroke-width="0.3" />
  <path
    d="M73.8047 46.4593C72.9532 45.6081 71.8201 45.1392 70.6137 45.1392C69.5547 45.1392 68.5264 45.5123 67.7186 46.1899L67.4247 46.436C67.2671 46.4164 67.1069 46.4066 66.9468 46.4066H66.9185L66.9035 46.4072C65.8833 46.4188 64.9252 46.8221 64.205 47.5434C63.4732 48.275 63.0701 49.2472 63.0703 50.2809C63.0703 51.3147 63.4736 52.2869 64.2054 53.0189C64.9379 53.7516 65.9114 54.1548 66.9469 54.1548H70.3257C70.421 54.1607 70.5178 54.1638 70.6137 54.1638H70.6259L70.6968 54.162C71.0028 54.1562 71.3063 54.1202 71.5995 54.0554C71.797 54.0112 71.9916 53.9541 72.1776 53.8854C72.7915 53.6591 73.3391 53.3079 73.8054 52.8419C75.5643 51.0821 75.5641 48.2189 73.8047 46.4593ZM66.9468 53.0765C66.2002 53.0765 65.4968 52.7853 64.9679 52.2564C63.8758 51.1642 63.8758 49.3974 64.9675 48.3059C65.4935 47.7791 66.1921 47.4887 66.9359 47.4856L66.9468 47.485C67.0875 47.485 67.2255 47.495 67.3619 47.5157C67.508 47.5373 67.6518 47.5711 67.7918 47.6149C68.0554 47.6975 68.3047 47.82 68.5338 47.9781C68.6404 48.0522 68.7435 48.1337 68.841 48.2238C68.8698 48.2506 68.8992 48.2776 68.9271 48.306L69.1196 48.498L70.0508 49.4301C70.2041 49.5825 70.2036 49.8304 70.0508 49.9827C69.9745 50.059 69.8747 50.0972 69.7748 50.0972C69.6748 50.0972 69.5745 50.059 69.4982 49.9827L68.5561 49.0401L68.3601 48.8446C68.3307 48.815 68.2997 48.7877 68.2683 48.7598C67.9963 48.5244 67.6721 48.3672 67.3218 48.3022C67.1993 48.2791 67.0746 48.2674 66.9471 48.2674L66.8898 48.2683C66.3722 48.2831 65.8879 48.4913 65.5203 48.8584C64.7329 49.6453 64.7329 50.9164 65.5201 51.7031C65.9014 52.0844 66.4084 52.2944 66.9471 52.2944H67.3035L67.6327 52.6131C67.7994 52.7805 67.9784 52.9409 68.1663 53.0765H66.9468V53.0765ZM73.0426 52.0793C72.6857 52.4363 72.2639 52.7044 71.8048 52.8735C71.6616 52.9263 71.514 52.9695 71.364 53.003C71.1401 53.0525 70.91 53.0795 70.6758 53.0841L70.6137 53.0854C69.808 53.0854 69.0457 52.8097 68.4314 52.3039C68.3468 52.234 68.2642 52.1585 68.1845 52.0794L68.0186 51.9128L67.6273 51.5224L66.5776 50.4724C66.4244 50.3199 66.4244 50.0721 66.5776 49.9193C66.6535 49.843 66.754 49.8047 66.8534 49.8047C66.9539 49.8047 67.0537 49.843 67.1305 49.9193L68.7331 51.5224L68.7375 51.5263C68.8868 51.6763 69.0514 51.8054 69.2273 51.9128C69.64 52.1673 70.1163 52.3039 70.6138 52.3039C70.837 52.3039 71.0565 52.2762 71.2673 52.2231C71.3987 52.1902 71.5275 52.1461 71.652 52.0938C71.9609 51.9615 72.2452 51.7716 72.4904 51.5264C73.5243 50.4922 73.5242 48.8089 72.4904 47.7747C71.9722 47.2572 71.2934 46.9986 70.6137 46.9986C70.0964 46.9986 69.5793 47.1488 69.1333 47.449C68.9092 47.275 68.6671 47.1297 68.4116 47.0161C69.0461 46.484 69.8298 46.2176 70.6137 46.2176C71.4937 46.2176 72.3727 46.5524 73.0419 47.2219C74.3813 48.5612 74.3813 50.7403 73.0426 52.0793Z"
    fill="white" />
  <rect x="89.7477" y="35.8015" width="27.7" height="27.7" rx="3.85" fill="#D3D3D3" />
  <rect x="89.7477" y="35.8015" width="27.7" height="27.7" rx="3.85" stroke="black" stroke-width="0.3" />
  <path
    d="M99.9175 51.3312C99.9175 52.0699 99.3205 52.6669 98.5818 52.6669C97.8431 52.6669 97.2461 52.0699 97.2461 51.3312C97.2461 50.5925 97.8431 49.9955 98.5818 49.9955H99.9175V51.3312ZM100.585 51.3312C100.585 50.5925 101.182 49.9955 101.921 49.9955C102.66 49.9955 103.257 50.5925 103.257 51.3312V54.6704C103.257 55.4091 102.66 56.0061 101.921 56.0061C101.182 56.0061 100.585 55.4091 100.585 54.6704V51.3312Z"
    fill="white" />
  <path
    d="M101.921 45.9682C101.183 45.9682 100.586 45.3711 100.586 44.6325C100.586 43.8938 101.183 43.2968 101.921 43.2968C102.66 43.2968 103.257 43.8938 103.257 44.6325V45.9682H101.921ZM101.921 46.6461C102.66 46.6461 103.257 47.2431 103.257 47.9818C103.257 48.7205 102.66 49.3175 101.921 49.3175H98.572C97.8333 49.3175 97.2363 48.7205 97.2363 47.9818C97.2363 47.2431 97.8333 46.6461 98.572 46.6461H101.921Z"
    fill="white" />
  <path
    d="M107.275 47.9818C107.275 47.2431 107.872 46.6461 108.61 46.6461C109.349 46.6461 109.946 47.2431 109.946 47.9818C109.946 48.7205 109.349 49.3175 108.61 49.3175H107.275V47.9818ZM106.607 47.9818C106.607 48.7205 106.01 49.3175 105.271 49.3175C104.533 49.3175 103.936 48.7205 103.936 47.9818V44.6325C103.936 43.8938 104.533 43.2968 105.271 43.2968C106.01 43.2968 106.607 43.8938 106.607 44.6325V47.9818Z"
    fill="white" />
  <path
    d="M105.271 53.3347C106.01 53.3347 106.607 53.9317 106.607 54.6704C106.607 55.4091 106.01 56.0061 105.271 56.0061C104.533 56.0061 103.936 55.4091 103.936 54.6704V53.3347H105.271ZM105.271 52.6669C104.533 52.6669 103.936 52.0699 103.936 51.3312C103.936 50.5925 104.533 49.9955 105.271 49.9955H108.621C109.359 49.9955 109.956 50.5925 109.956 51.3312C109.956 52.0699 109.359 52.6669 108.621 52.6669H105.271Z"
    fill="white" />
  <rect x="124.248" y="35.8015" width="27.7" height="27.7" rx="3.85" fill="#D3D3D3" />
  <rect x="124.248" y="35.8015" width="27.7" height="27.7" rx="3.85" stroke="black" stroke-width="0.3" />
  <path d="M144.429 47.0868L141.132 45.0493L137.884 47.2107L141.172 49.2364L144.429 47.0868Z" fill="white" />
  <path d="M137.9 51.3951L141.164 53.4149L144.446 51.2529L141.172 49.2363L137.9 51.3951Z" fill="white" />
  <path d="M131.355 51.5006L134.652 53.5381L137.9 51.395L134.612 49.3603L131.355 51.5006Z" fill="white" />
  <path d="M134.618 45.1725L131.337 47.3345L134.611 49.3604L137.882 47.2106L134.618 45.1725Z" fill="white" />
  <path d="M137.903 52.0766L134.654 54.2047L137.919 56.2428L141.167 54.0814L137.903 52.0766Z" fill="white" />
  <rect x="55.2477" y="73.8015" width="27.7" height="27.7" rx="3.85" fill="#D3D3D3" />
  <rect x="55.2477" y="73.8015" width="27.7" height="27.7" rx="3.85" stroke="black" stroke-width="0.3" />
  <path
    d="M65.4175 89.3312C65.4175 90.0699 64.8205 90.6669 64.0818 90.6669C63.3431 90.6669 62.7461 90.0699 62.7461 89.3312C62.7461 88.5925 63.3431 87.9955 64.0818 87.9955H65.4175V89.3312ZM66.0853 89.3312C66.0853 88.5925 66.6824 87.9955 67.421 87.9955C68.1597 87.9955 68.7567 88.5925 68.7567 89.3312V92.6704C68.7567 93.4091 68.1597 94.0061 67.421 94.0061C66.6824 94.0061 66.0853 93.4091 66.0853 92.6704V89.3312Z"
    fill="white" />
  <path
    d="M67.4214 83.9682C66.6827 83.9682 66.0857 83.3711 66.0857 82.6325C66.0857 81.8938 66.6827 81.2968 67.4214 81.2968C68.1601 81.2968 68.7571 81.8938 68.7571 82.6325V83.9682H67.4214ZM67.4214 84.6461C68.1601 84.6461 68.7571 85.2431 68.7571 85.9818C68.7571 86.7205 68.1601 87.3175 67.4214 87.3175H64.072C63.3333 87.3175 62.7363 86.7205 62.7363 85.9818C62.7363 85.2431 63.3333 84.6461 64.072 84.6461H67.4214Z"
    fill="white" />
  <path
    d="M72.7748 85.9818C72.7748 85.2431 73.3718 84.6461 74.1105 84.6461C74.8492 84.6461 75.4462 85.2431 75.4462 85.9818C75.4462 86.7205 74.8492 87.3175 74.1105 87.3175H72.7748V85.9818ZM72.1069 85.9818C72.1069 86.7205 71.5099 87.3175 70.7712 87.3175C70.0326 87.3175 69.4355 86.7205 69.4355 85.9818V82.6325C69.4355 81.8938 70.0326 81.2968 70.7712 81.2968C71.5099 81.2968 72.1069 81.8938 72.1069 82.6325V85.9818Z"
    fill="white" />
  <path
    d="M70.7712 91.3347C71.5099 91.3347 72.1069 91.9317 72.1069 92.6704C72.1069 93.4091 71.5099 94.0061 70.7712 94.0061C70.0326 94.0061 69.4355 93.4091 69.4355 92.6704V91.3347H70.7712ZM70.7712 90.6669C70.0326 90.6669 69.4355 90.0699 69.4355 89.3312C69.4355 88.5925 70.0326 87.9955 70.7712 87.9955H74.1206C74.8593 87.9955 75.4563 88.5925 75.4563 89.3312C75.4563 90.0699 74.8593 90.6669 74.1206 90.6669H70.7712Z"
    fill="white" />
  <rect x="89.7477" y="73.8015" width="27.7" height="27.7" rx="3.85" fill="#D3D3D3" />
  <rect x="89.7477" y="73.8015" width="27.7" height="27.7" rx="3.85" stroke="black" stroke-width="0.3" />
  <path d="M109.929 85.0868L106.632 83.0493L103.384 85.2107L106.672 87.2364L109.929 85.0868Z" fill="white" />
  <path d="M103.4 89.3951L106.664 91.4149L109.946 89.2529L106.672 87.2363L103.4 89.3951Z" fill="white" />
  <path d="M96.8545 89.5006L100.152 91.5381L103.4 89.395L100.112 87.3603L96.8545 89.5006Z" fill="white" />
  <path d="M100.118 83.1725L96.8366 85.3345L100.111 87.3604L103.382 85.2106L100.118 83.1725Z" fill="white" />
  <path d="M103.403 90.0766L100.154 92.2047L103.419 94.2428L106.667 92.0814L103.403 90.0766Z" fill="white" />
  <rect x="124.248" y="73.8015" width="27.7" height="27.7" rx="3.85" fill="#D3D3D3" />
  <rect x="124.248" y="73.8015" width="27.7" height="27.7" rx="3.85" stroke="black" stroke-width="0.3" />
  <path
    d="M142.805 84.4593C141.953 83.6081 140.82 83.1392 139.614 83.1392C138.555 83.1392 137.526 83.5123 136.719 84.1899L136.425 84.436C136.267 84.4164 136.107 84.4066 135.947 84.4066H135.919L135.904 84.4072C134.883 84.4188 133.925 84.8221 133.205 85.5434C132.473 86.275 132.07 87.2472 132.07 88.2809C132.07 89.3147 132.474 90.2869 133.205 91.0189C133.938 91.7516 134.911 92.1548 135.947 92.1548H139.326C139.421 92.1607 139.518 92.1638 139.614 92.1638H139.626L139.697 92.162C140.003 92.1562 140.306 92.1202 140.599 92.0554C140.797 92.0112 140.992 91.9541 141.178 91.8854C141.791 91.6591 142.339 91.3079 142.805 90.8419C144.564 89.0821 144.564 86.2189 142.805 84.4593ZM135.947 91.0765C135.2 91.0765 134.497 90.7853 133.968 90.2564C132.876 89.1642 132.876 87.3974 133.967 86.3059C134.493 85.7791 135.192 85.4887 135.936 85.4856L135.947 85.485C136.087 85.485 136.225 85.495 136.362 85.5157C136.508 85.5373 136.652 85.5711 136.792 85.6149C137.055 85.6975 137.305 85.82 137.534 85.9781C137.64 86.0522 137.744 86.1337 137.841 86.2238C137.87 86.2506 137.899 86.2776 137.927 86.306L138.12 86.498L139.051 87.4301C139.204 87.5825 139.204 87.8304 139.051 87.9827C138.975 88.059 138.875 88.0972 138.775 88.0972C138.675 88.0972 138.575 88.059 138.498 87.9827L137.556 87.0401L137.36 86.8446C137.331 86.815 137.3 86.7877 137.268 86.7598C136.996 86.5244 136.672 86.3672 136.322 86.3022C136.199 86.2791 136.075 86.2674 135.947 86.2674L135.89 86.2683C135.372 86.2831 134.888 86.4913 134.52 86.8584C133.733 87.6453 133.733 88.9164 134.52 89.7031C134.901 90.0844 135.408 90.2944 135.947 90.2944H136.304L136.633 90.6131C136.799 90.7805 136.978 90.9409 137.166 91.0765H135.947V91.0765ZM142.043 90.0793C141.686 90.4363 141.264 90.7044 140.805 90.8735C140.662 90.9263 140.514 90.9695 140.364 91.003C140.14 91.0525 139.91 91.0795 139.676 91.0841L139.614 91.0854C138.808 91.0854 138.046 90.8097 137.431 90.3039C137.347 90.234 137.264 90.1585 137.184 90.0794L137.019 89.9128L136.627 89.5224L135.578 88.4724C135.424 88.3199 135.424 88.0721 135.578 87.9193C135.653 87.843 135.754 87.8047 135.853 87.8047C135.954 87.8047 136.054 87.843 136.13 87.9193L137.733 89.5224L137.738 89.5263C137.887 89.6763 138.051 89.8054 138.227 89.9128C138.64 90.1673 139.116 90.3039 139.614 90.3039C139.837 90.3039 140.056 90.2762 140.267 90.2231C140.399 90.1902 140.528 90.1461 140.652 90.0938C140.961 89.9615 141.245 89.7716 141.49 89.5264C142.524 88.4922 142.524 86.8089 141.49 85.7747C140.972 85.2572 140.293 84.9986 139.614 84.9986C139.096 84.9986 138.579 85.1488 138.133 85.449C137.909 85.275 137.667 85.1297 137.412 85.0161C138.046 84.484 138.83 84.2176 139.614 84.2176C140.494 84.2176 141.373 84.5524 142.042 85.2219C143.381 86.5612 143.381 88.7403 142.043 90.0793Z"
    fill="white" />
  <rect x="55.2477" y="111.801" width="27.7" height="27.7" rx="3.85" fill="#D3D3D3" />
  <rect x="55.2477" y="111.801" width="27.7" height="27.7" rx="3.85" stroke="black" stroke-width="0.3" />
  <path d="M75.4293 123.087L72.1317 121.049L68.8837 123.211L72.1716 125.236L75.4293 123.087Z" fill="white" />
  <path d="M68.9001 127.395L72.1644 129.415L75.4457 127.253L72.1717 125.236L68.9001 127.395Z" fill="white" />
  <path d="M62.3545 127.501L65.6521 129.538L68.9002 127.395L65.6123 125.36L62.3545 127.501Z" fill="white" />
  <path d="M65.6178 121.172L62.3366 123.334L65.6105 125.36L68.8822 123.211L65.6178 121.172Z" fill="white" />
  <path d="M68.9025 128.077L65.6544 130.205L68.9187 132.243L72.1668 130.081L68.9025 128.077Z" fill="white" />
  <rect x="89.7477" y="111.801" width="27.7" height="27.7" rx="3.85" fill="#D3D3D3" />
  <rect x="89.7477" y="111.801" width="27.7" height="27.7" rx="3.85" stroke="black" stroke-width="0.3" />
  <path
    d="M108.305 122.459C107.453 121.608 106.32 121.139 105.114 121.139C104.055 121.139 103.026 121.512 102.219 122.19L101.925 122.436C101.767 122.416 101.607 122.407 101.447 122.407H101.419L101.404 122.407C100.383 122.419 99.4252 122.822 98.705 123.543C97.9732 124.275 97.5701 125.247 97.5703 126.281C97.5703 127.315 97.9736 128.287 98.7054 129.019C99.4379 129.752 100.411 130.155 101.447 130.155H104.826C104.921 130.161 105.018 130.164 105.114 130.164H105.126L105.197 130.162C105.503 130.156 105.806 130.12 106.099 130.055C106.297 130.011 106.492 129.954 106.678 129.885C107.291 129.659 107.839 129.308 108.305 128.842C110.064 127.082 110.064 124.219 108.305 122.459ZM101.447 129.076C100.7 129.076 99.9968 128.785 99.4679 128.256C98.3758 127.164 98.3758 125.397 99.4675 124.306C99.9935 123.779 100.692 123.489 101.436 123.486L101.447 123.485C101.587 123.485 101.725 123.495 101.862 123.516C102.008 123.537 102.152 123.571 102.292 123.615C102.555 123.698 102.805 123.82 103.034 123.978C103.14 124.052 103.244 124.134 103.341 124.224C103.37 124.251 103.399 124.278 103.427 124.306L103.62 124.498L104.551 125.43C104.704 125.583 104.704 125.83 104.551 125.983C104.475 126.059 104.375 126.097 104.275 126.097C104.175 126.097 104.075 126.059 103.998 125.983L103.056 125.04L102.86 124.845C102.831 124.815 102.8 124.788 102.768 124.76C102.496 124.524 102.172 124.367 101.822 124.302C101.699 124.279 101.575 124.267 101.447 124.267L101.39 124.268C100.872 124.283 100.388 124.491 100.02 124.858C99.2329 125.645 99.2329 126.916 100.02 127.703C100.401 128.084 100.908 128.294 101.447 128.294H101.804L102.133 128.613C102.299 128.78 102.478 128.941 102.666 129.077H101.447V129.076ZM107.543 128.079C107.186 128.436 106.764 128.704 106.305 128.874C106.162 128.926 106.014 128.969 105.864 129.003C105.64 129.052 105.41 129.08 105.176 129.084L105.114 129.085C104.308 129.085 103.546 128.81 102.931 128.304C102.847 128.234 102.764 128.159 102.684 128.079L102.519 127.913L102.127 127.522L101.078 126.472C100.924 126.32 100.924 126.072 101.078 125.919C101.153 125.843 101.254 125.805 101.353 125.805C101.454 125.805 101.554 125.843 101.63 125.919L103.233 127.522L103.238 127.526C103.387 127.676 103.551 127.805 103.727 127.913C104.14 128.167 104.616 128.304 105.114 128.304C105.337 128.304 105.556 128.276 105.767 128.223C105.899 128.19 106.028 128.146 106.152 128.094C106.461 127.962 106.745 127.772 106.99 127.526C108.024 126.492 108.024 124.809 106.99 123.775C106.472 123.257 105.793 122.999 105.114 122.999C104.596 122.999 104.079 123.149 103.633 123.449C103.409 123.275 103.167 123.13 102.912 123.016C103.546 122.484 104.33 122.218 105.114 122.218C105.994 122.218 106.873 122.552 107.542 123.222C108.881 124.561 108.881 126.74 107.543 128.079Z"
    fill="white" />
  <rect x="124.248" y="111.801" width="27.7" height="27.7" rx="3.85" fill="#D3D3D3" />
  <rect x="124.248" y="111.801" width="27.7" height="27.7" rx="3.85" stroke="black" stroke-width="0.3" />
  <path
    d="M134.417 127.331C134.417 128.07 133.82 128.667 133.082 128.667C132.343 128.667 131.746 128.07 131.746 127.331C131.746 126.593 132.343 125.995 133.082 125.995H134.417V127.331ZM135.085 127.331C135.085 126.593 135.682 125.995 136.421 125.995C137.16 125.995 137.757 126.593 137.757 127.331V130.67C137.757 131.409 137.16 132.006 136.421 132.006C135.682 132.006 135.085 131.409 135.085 130.67V127.331Z"
    fill="white" />
  <path
    d="M136.421 121.968C135.683 121.968 135.086 121.371 135.086 120.632C135.086 119.894 135.683 119.297 136.421 119.297C137.16 119.297 137.757 119.894 137.757 120.632V121.968H136.421ZM136.421 122.646C137.16 122.646 137.757 123.243 137.757 123.982C137.757 124.721 137.16 125.318 136.421 125.318H133.072C132.333 125.318 131.736 124.721 131.736 123.982C131.736 123.243 132.333 122.646 133.072 122.646H136.421Z"
    fill="white" />
  <path
    d="M141.775 123.982C141.775 123.243 142.372 122.646 143.11 122.646C143.849 122.646 144.446 123.243 144.446 123.982C144.446 124.721 143.849 125.318 143.11 125.318H141.775V123.982ZM141.107 123.982C141.107 124.721 140.51 125.318 139.771 125.318C139.033 125.318 138.436 124.721 138.436 123.982V120.632C138.436 119.894 139.033 119.297 139.771 119.297C140.51 119.297 141.107 119.894 141.107 120.632V123.982Z"
    fill="white" />
  <path
    d="M139.771 129.335C140.51 129.335 141.107 129.932 141.107 130.67C141.107 131.409 140.51 132.006 139.771 132.006C139.033 132.006 138.436 131.409 138.436 130.67V129.335H139.771ZM139.771 128.667C139.033 128.667 138.436 128.07 138.436 127.331C138.436 126.593 139.033 125.995 139.771 125.995H143.121C143.859 125.995 144.456 126.593 144.456 127.331C144.456 128.07 143.859 128.667 143.121 128.667H139.771Z"
    fill="white" />
  <rect x="13.1777" y="35.6515" width="34" height="7.7785" rx="3.88925" fill="#D3D3D3" />
  <rect x="13.1777" y="46.4299" width="30.1417" height="7.7785" rx="3.88925" fill="#D3D3D3" />
  <rect x="13.1777" y="57.2085" width="30.1417" height="7.7785" rx="3.88925" fill="#D3D3D3" />
  <rect x="13.1777" y="67.9869" width="25.6042" height="7.7785" rx="3.88925" fill="#D3D3D3" />
  <circle cx="15.9145" cy="12.9953" r="2.73675" fill="#D3D3D3" />
  <circle cx="22.3832" cy="12.9863" r="2.73675" fill="#D3D3D3" />
  <circle cx="28.852" cy="12.9863" r="2.73675" fill="#D3D3D3" />
  <rect x="55.0977" y="8.42676" width="96.5831" height="8.75081" rx="4.37541" fill="#D3D3D3" />
</svg>