<svg width="230" height="78" viewBox="0 0 230 78" fill="none" xmlns="http://www.w3.org/2000/svg">
	<rect x="0.488784" y="0.488784" width="76.342" height="76.421" rx="11.242" fill="white" stroke="black"
		stroke-width="0.977568" />
	<circle cx="38.66" cy="38.6597" r="19.3299" fill="#D9D9D9" />
	<path
		d="M38.9264 36.0199C41.2157 36.0199 43.039 34.1967 43.039 31.9073C43.039 29.618 41.2157 27.7947 38.9264 27.7947C36.637 27.7947 34.8138 29.618 34.8138 31.9073C34.8138 34.1967 36.637 36.0199 38.9264 36.0199ZM38.9264 34.9918C37.1991 34.9918 35.8419 33.6346 35.8419 31.9073C35.8419 30.18 37.1991 28.8229 38.9264 28.8229C40.6537 28.8229 42.0108 30.18 42.0108 31.9073C42.0108 33.6346 40.6537 34.9918 38.9264 34.9918ZM46.4662 47.8779V44.8072C46.4662 40.6123 43.1212 37.2537 38.9264 37.2537C34.7315 37.2537 31.3866 40.626 31.3866 44.8072V47.8779H46.4662ZM32.4148 44.8072C32.4148 41.1881 35.3073 38.2819 38.9264 38.2819C42.5455 38.2819 45.438 41.1744 45.438 44.8072V46.8498H32.4148V44.8072Z"
		fill="#818181" />
	<path
		d="M108.567 46.2059L115.94 49.5433L116.561 49.0621L115.568 40.6797L121.358 34.1601L121.109 33.4306L112.991 32.2974L108.955 24.7067H108.179L104.143 32.2974L96.0245 33.4306L95.7761 34.1601L101.566 40.6797L100.573 49.0621L101.194 49.5433L108.567 46.2059ZM135.701 46.2059L143.074 49.5433L143.695 49.0621L142.702 40.6797L148.492 34.1601L148.243 33.4306L140.125 32.2974L136.089 24.7067H135.313L131.277 32.2974L123.158 33.4306L122.91 34.1601L128.7 40.6797L127.707 49.0621L128.328 49.5433L135.701 46.2059ZM162.835 46.2059L170.208 49.5433L170.829 49.0621L169.836 40.6797L175.626 34.1601L175.377 33.4306L167.259 32.2974L163.223 24.7067H162.447L158.411 32.2974L150.292 33.4306L150.044 34.1601L155.834 40.6797L154.841 49.0621L155.462 49.5433L162.835 46.2059ZM189.969 46.2059L197.342 49.5433L197.963 49.0621L196.97 40.6797L202.76 34.1601L202.511 33.4306L194.393 32.2974L190.357 24.7067H189.581L185.545 32.2974L177.426 33.4306L177.178 34.1601L182.968 40.6797L181.975 49.0621L182.596 49.5433L189.969 46.2059ZM217.103 46.2059L224.476 49.5433L225.097 49.0621L224.104 40.6797L229.894 34.1601L229.645 33.4306L221.527 32.2974L217.491 24.7067H216.715L212.679 32.2974L204.56 33.4306L204.312 34.1601L210.102 40.6797L209.109 49.0621L209.73 49.5433L217.103 46.2059Z"
		fill="#2475FF" />
</svg>